<svg width="200" height="175" viewBox="0 0 200 175" fill="none" xmlns="http://www.w3.org/2000/svg">
<path fill-rule="evenodd" clip-rule="evenodd" d="M63.8747 63.58L0 174.451H199.981L136.107 63.58H63.8747Z" fill="#85BBFD"/>
<path d="M135.202 61.58H64.7607L86.5498 23.7596H113.413L135.202 61.58Z" fill="#D24B49"/>
<path d="M112.629 21.7596L100.093 0L87.5566 21.7596H112.629Z" fill="#FCF12D"/>
<path d="M116.179 14H115.256L117.926 6.72727H118.835L121.506 14H120.582L118.409 7.87784H118.352L116.179 14ZM116.52 11.1591H120.241V11.9403H116.52V11.1591ZM125.962 11.7699V8.54545H126.8V14H125.962V13.0767H125.906C125.778 13.3537 125.579 13.5893 125.309 13.7834C125.039 13.9751 124.698 14.071 124.286 14.071C123.945 14.071 123.642 13.9964 123.377 13.8473C123.112 13.6958 122.904 13.4685 122.752 13.1655C122.601 12.8601 122.525 12.4754 122.525 12.0114V8.54545H123.363V11.9545C123.363 12.3523 123.474 12.6695 123.697 12.9062C123.922 13.143 124.208 13.2614 124.556 13.2614C124.764 13.2614 124.976 13.2081 125.192 13.1016C125.41 12.995 125.592 12.8317 125.739 12.6115C125.888 12.3913 125.962 12.1108 125.962 11.7699ZM130.708 8.54545V9.25568H127.881V8.54545H130.708ZM128.705 7.23864H129.543V12.4375C129.543 12.6742 129.577 12.8518 129.646 12.9702C129.717 13.0862 129.807 13.1643 129.916 13.2045C130.027 13.2424 130.144 13.2614 130.267 13.2614C130.36 13.2614 130.435 13.2566 130.494 13.2472C130.554 13.2353 130.601 13.2259 130.637 13.2188L130.807 13.9716C130.75 13.9929 130.671 14.0142 130.569 14.0355C130.467 14.0592 130.338 14.071 130.182 14.071C129.945 14.071 129.713 14.0201 129.486 13.9183C129.261 13.8165 129.074 13.6615 128.925 13.4531C128.778 13.2448 128.705 12.982 128.705 12.6648V7.23864ZM134.126 14.1136C133.633 14.1136 133.201 13.9964 132.829 13.7621C132.46 13.5277 132.171 13.1998 131.963 12.7784C131.757 12.357 131.654 11.8646 131.654 11.3011C131.654 10.733 131.757 10.237 131.963 9.81321C132.171 9.38944 132.46 9.06037 132.829 8.82599C133.201 8.59162 133.633 8.47443 134.126 8.47443C134.618 8.47443 135.049 8.59162 135.418 8.82599C135.79 9.06037 136.079 9.38944 136.285 9.81321C136.493 10.237 136.597 10.733 136.597 11.3011C136.597 11.8646 136.493 12.357 136.285 12.7784C136.079 13.1998 135.79 13.5277 135.418 13.7621C135.049 13.9964 134.618 14.1136 134.126 14.1136ZM134.126 13.3608C134.5 13.3608 134.807 13.2649 135.049 13.0732C135.29 12.8814 135.469 12.6293 135.585 12.3168C135.701 12.0043 135.759 11.6657 135.759 11.3011C135.759 10.9366 135.701 10.5968 135.585 10.282C135.469 9.96709 135.29 9.71259 135.049 9.51847C134.807 9.32434 134.5 9.22727 134.126 9.22727C133.751 9.22727 133.444 9.32434 133.202 9.51847C132.961 9.71259 132.782 9.96709 132.666 10.282C132.55 10.5968 132.492 10.9366 132.492 11.3011C132.492 11.6657 132.55 12.0043 132.666 12.3168C132.782 12.6293 132.961 12.8814 133.202 13.0732C133.444 13.2649 133.751 13.3608 134.126 13.3608ZM137.876 14V8.54545H138.686V9.36932H138.743C138.842 9.09943 139.022 8.88045 139.283 8.71236C139.543 8.54427 139.837 8.46023 140.163 8.46023C140.225 8.46023 140.302 8.46141 140.394 8.46378C140.487 8.46615 140.556 8.4697 140.604 8.47443V9.3267C140.575 9.3196 140.51 9.30895 140.408 9.29474C140.309 9.27817 140.204 9.26989 140.092 9.26989C139.827 9.26989 139.59 9.32552 139.382 9.43679C139.176 9.54569 139.013 9.69721 138.892 9.89134C138.774 10.0831 138.714 10.3021 138.714 10.5483V14H137.876ZM143.718 14.1136C143.192 14.1136 142.739 13.9976 142.358 13.7656C141.979 13.5312 141.687 13.2045 141.481 12.7855C141.277 12.3641 141.175 11.8741 141.175 11.3153C141.175 10.7566 141.277 10.2642 141.481 9.83807C141.687 9.40956 141.973 9.07576 142.34 8.83665C142.71 8.59517 143.14 8.47443 143.633 8.47443C143.917 8.47443 144.197 8.52178 144.474 8.61648C144.751 8.71117 145.004 8.86506 145.231 9.07812C145.458 9.28883 145.639 9.56818 145.774 9.91619C145.909 10.2642 145.977 10.6927 145.977 11.2017V11.5568H141.772V10.8324H145.124C145.124 10.5246 145.063 10.25 144.94 10.0085C144.819 9.76705 144.646 9.57647 144.421 9.43679C144.199 9.29711 143.936 9.22727 143.633 9.22727C143.299 9.22727 143.01 9.31013 142.766 9.47585C142.525 9.6392 142.339 9.85227 142.209 10.1151C142.079 10.3778 142.013 10.6596 142.013 10.9602V11.4432C142.013 11.8551 142.085 12.2043 142.227 12.4908C142.371 12.7749 142.571 12.9915 142.827 13.1406C143.082 13.2874 143.379 13.3608 143.718 13.3608C143.938 13.3608 144.137 13.33 144.315 13.2685C144.495 13.2045 144.65 13.1098 144.78 12.9844C144.91 12.8565 145.011 12.6979 145.082 12.5085L145.891 12.7358C145.806 13.0104 145.663 13.2519 145.462 13.4602C145.26 13.6662 145.012 13.8272 144.716 13.9432C144.42 14.0568 144.087 14.1136 143.718 14.1136ZM148.089 10.7188V14H147.251V8.54545H148.061V9.39773H148.132C148.26 9.12074 148.454 8.8982 148.714 8.73011C148.975 8.55966 149.311 8.47443 149.723 8.47443C150.092 8.47443 150.415 8.55019 150.692 8.7017C150.969 8.85085 151.185 9.07812 151.339 9.38352C151.493 9.68655 151.57 10.0701 151.57 10.5341V14H150.732V10.5909C150.732 10.1624 150.62 9.8286 150.398 9.58949C150.175 9.34801 149.87 9.22727 149.482 9.22727C149.214 9.22727 148.975 9.28527 148.764 9.40128C148.556 9.51728 148.391 9.68655 148.271 9.90909C148.15 10.1316 148.089 10.4015 148.089 10.7188Z" fill="black"/>
<path d="M132.881 47V39.7273H133.761V43.3352H133.847L137.114 39.7273H138.264L135.21 43.0085L138.264 47H137.199L134.67 43.6193L133.761 44.642V47H132.881ZM141.106 47.1136C140.614 47.1136 140.182 46.9964 139.81 46.7621C139.441 46.5277 139.152 46.1998 138.943 45.7784C138.737 45.357 138.634 44.8646 138.634 44.3011C138.634 43.733 138.737 43.237 138.943 42.8132C139.152 42.3894 139.441 42.0604 139.81 41.826C140.182 41.5916 140.614 41.4744 141.106 41.4744C141.598 41.4744 142.029 41.5916 142.399 41.826C142.77 42.0604 143.059 42.3894 143.265 42.8132C143.473 43.237 143.578 43.733 143.578 44.3011C143.578 44.8646 143.473 45.357 143.265 45.7784C143.059 46.1998 142.77 46.5277 142.399 46.7621C142.029 46.9964 141.598 47.1136 141.106 47.1136ZM141.106 46.3608C141.48 46.3608 141.788 46.2649 142.029 46.0732C142.271 45.8814 142.45 45.6293 142.566 45.3168C142.682 45.0043 142.74 44.6657 142.74 44.3011C142.74 43.9366 142.682 43.5968 142.566 43.282C142.45 42.9671 142.271 42.7126 142.029 42.5185C141.788 42.3243 141.48 42.2273 141.106 42.2273C140.732 42.2273 140.424 42.3243 140.183 42.5185C139.941 42.7126 139.762 42.9671 139.646 43.282C139.53 43.5968 139.472 43.9366 139.472 44.3011C139.472 44.6657 139.53 45.0043 139.646 45.3168C139.762 45.6293 139.941 45.8814 140.183 46.0732C140.424 46.2649 140.732 46.3608 141.106 46.3608ZM144.857 47V41.5455H145.667V42.3977H145.738C145.851 42.1065 146.035 41.8804 146.288 41.7195C146.541 41.5561 146.846 41.4744 147.201 41.4744C147.56 41.4744 147.86 41.5561 148.099 41.7195C148.341 41.8804 148.529 42.1065 148.664 42.3977H148.721C148.86 42.116 149.07 41.8923 149.349 41.7266C149.628 41.5585 149.963 41.4744 150.354 41.4744C150.842 41.4744 151.241 41.6271 151.551 41.9325C151.861 42.2356 152.016 42.7079 152.016 43.3494V47H151.178V43.3494C151.178 42.947 151.068 42.6593 150.848 42.4865C150.627 42.3137 150.368 42.2273 150.07 42.2273C149.686 42.2273 149.389 42.3433 149.179 42.5753C148.968 42.8049 148.863 43.0961 148.863 43.4489V47H148.01V43.2642C148.01 42.9541 147.91 42.7043 147.708 42.5149C147.507 42.3232 147.248 42.2273 146.931 42.2273C146.713 42.2273 146.509 42.2853 146.32 42.4013C146.133 42.5173 145.981 42.6783 145.865 42.8842C145.752 43.0878 145.695 43.3234 145.695 43.5909V47H144.857ZM153.548 47V41.5455H154.358V42.3977H154.429C154.543 42.1065 154.726 41.8804 154.979 41.7195C155.233 41.5561 155.537 41.4744 155.892 41.4744C156.252 41.4744 156.551 41.5561 156.79 41.7195C157.032 41.8804 157.22 42.1065 157.355 42.3977H157.412C157.552 42.116 157.761 41.8923 158.04 41.7266C158.32 41.5585 158.655 41.4744 159.045 41.4744C159.533 41.4744 159.932 41.6271 160.242 41.9325C160.552 42.2356 160.707 42.7079 160.707 43.3494V47H159.869V43.3494C159.869 42.947 159.759 42.6593 159.539 42.4865C159.319 42.3137 159.06 42.2273 158.761 42.2273C158.378 42.2273 158.081 42.3433 157.87 42.5753C157.659 42.8049 157.554 43.0961 157.554 43.4489V47H156.702V43.2642C156.702 42.9541 156.601 42.7043 156.4 42.5149C156.199 42.3232 155.939 42.2273 155.622 42.2273C155.404 42.2273 155.201 42.2853 155.011 42.4013C154.824 42.5173 154.673 42.6783 154.557 42.8842C154.443 43.0878 154.386 43.3234 154.386 43.5909V47H153.548ZM164.527 47.1136C164.001 47.1136 163.548 46.9976 163.167 46.7656C162.788 46.5312 162.495 46.2045 162.289 45.7855C162.086 45.3641 161.984 44.8741 161.984 44.3153C161.984 43.7566 162.086 43.2642 162.289 42.8381C162.495 42.4096 162.782 42.0758 163.149 41.8366C163.518 41.5952 163.949 41.4744 164.441 41.4744C164.725 41.4744 165.006 41.5218 165.283 41.6165C165.56 41.7112 165.812 41.8651 166.039 42.0781C166.267 42.2888 166.448 42.5682 166.583 42.9162C166.718 43.2642 166.785 43.6927 166.785 44.2017V44.5568H162.581V43.8324H165.933C165.933 43.5246 165.871 43.25 165.748 43.0085C165.627 42.767 165.455 42.5765 165.23 42.4368C165.007 42.2971 164.744 42.2273 164.441 42.2273C164.108 42.2273 163.819 42.3101 163.575 42.4759C163.333 42.6392 163.148 42.8523 163.017 43.1151C162.887 43.3778 162.822 43.6596 162.822 43.9602V44.4432C162.822 44.8551 162.893 45.2043 163.035 45.4908C163.18 45.7749 163.38 45.9915 163.635 46.1406C163.891 46.2874 164.188 46.3608 164.527 46.3608C164.747 46.3608 164.946 46.33 165.123 46.2685C165.303 46.2045 165.458 46.1098 165.588 45.9844C165.719 45.8565 165.819 45.6979 165.89 45.5085L166.7 45.7358C166.615 46.0104 166.471 46.2519 166.27 46.4602C166.069 46.6662 165.82 46.8272 165.525 46.9432C165.229 47.0568 164.896 47.1136 164.527 47.1136ZM168.898 43.7188V47H168.06V41.5455H168.87V42.3977H168.941C169.069 42.1207 169.263 41.8982 169.523 41.7301C169.783 41.5597 170.12 41.4744 170.532 41.4744C170.901 41.4744 171.224 41.5502 171.501 41.7017C171.778 41.8509 171.993 42.0781 172.147 42.3835C172.301 42.6866 172.378 43.0701 172.378 43.5341V47H171.54V43.5909C171.54 43.1624 171.429 42.8286 171.206 42.5895C170.984 42.348 170.678 42.2273 170.29 42.2273C170.023 42.2273 169.783 42.2853 169.573 42.4013C169.364 42.5173 169.2 42.6866 169.079 42.9091C168.958 43.1316 168.898 43.4015 168.898 43.7188ZM176.282 41.5455V42.2557H173.455V41.5455H176.282ZM174.279 40.2386H175.117V45.4375C175.117 45.6742 175.151 45.8518 175.22 45.9702C175.291 46.0862 175.381 46.1643 175.49 46.2045C175.601 46.2424 175.718 46.2614 175.841 46.2614C175.934 46.2614 176.01 46.2566 176.069 46.2472C176.128 46.2353 176.175 46.2259 176.211 46.2188L176.381 46.9716C176.324 46.9929 176.245 47.0142 176.143 47.0355C176.041 47.0592 175.912 47.071 175.756 47.071C175.519 47.071 175.287 47.0201 175.06 46.9183C174.835 46.8165 174.648 46.6615 174.499 46.4531C174.352 46.2448 174.279 45.982 174.279 45.6648V40.2386ZM177.542 47V41.5455H178.381V47H177.542ZM177.969 40.6364C177.805 40.6364 177.664 40.5807 177.546 40.4695C177.43 40.3582 177.372 40.2244 177.372 40.0682C177.372 39.9119 177.43 39.7782 177.546 39.6669C177.664 39.5556 177.805 39.5 177.969 39.5C178.132 39.5 178.272 39.5556 178.388 39.6669C178.506 39.7782 178.565 39.9119 178.565 40.0682C178.565 40.2244 178.506 40.3582 178.388 40.4695C178.272 40.5807 178.132 40.6364 177.969 40.6364ZM182.202 47.1136C181.677 47.1136 181.223 46.9976 180.842 46.7656C180.464 46.5312 180.171 46.2045 179.965 45.7855C179.762 45.3641 179.66 44.8741 179.66 44.3153C179.66 43.7566 179.762 43.2642 179.965 42.8381C180.171 42.4096 180.458 42.0758 180.825 41.8366C181.194 41.5952 181.625 41.4744 182.117 41.4744C182.401 41.4744 182.682 41.5218 182.959 41.6165C183.236 41.7112 183.488 41.8651 183.715 42.0781C183.942 42.2888 184.124 42.5682 184.259 42.9162C184.393 43.2642 184.461 43.6927 184.461 44.2017V44.5568H180.256V43.8324H183.609C183.609 43.5246 183.547 43.25 183.424 43.0085C183.303 42.767 183.13 42.5765 182.906 42.4368C182.683 42.2971 182.42 42.2273 182.117 42.2273C181.783 42.2273 181.495 42.3101 181.251 42.4759C181.009 42.6392 180.823 42.8523 180.693 43.1151C180.563 43.3778 180.498 43.6596 180.498 43.9602V44.4432C180.498 44.8551 180.569 45.2043 180.711 45.4908C180.855 45.7749 181.055 45.9915 181.311 46.1406C181.567 46.2874 181.864 46.3608 182.202 46.3608C182.423 46.3608 182.621 46.33 182.799 46.2685C182.979 46.2045 183.134 46.1098 183.264 45.9844C183.394 45.8565 183.495 45.6979 183.566 45.5085L184.376 45.7358C184.29 46.0104 184.147 46.2519 183.946 46.4602C183.745 46.6662 183.496 46.8272 183.2 46.9432C182.904 47.0568 182.572 47.1136 182.202 47.1136ZM185.736 47V41.5455H186.545V42.3693H186.602C186.702 42.0994 186.882 41.8804 187.142 41.7124C187.402 41.5443 187.696 41.4602 188.023 41.4602C188.084 41.4602 188.161 41.4614 188.254 41.4638C188.346 41.4661 188.416 41.4697 188.463 41.4744V42.3267C188.435 42.3196 188.37 42.3089 188.268 42.2947C188.168 42.2782 188.063 42.2699 187.952 42.2699C187.687 42.2699 187.45 42.3255 187.241 42.4368C187.036 42.5457 186.872 42.6972 186.751 42.8913C186.633 43.0831 186.574 43.3021 186.574 43.5483V47H185.736ZM191.577 47.1136C191.052 47.1136 190.598 46.9976 190.217 46.7656C189.839 46.5312 189.546 46.2045 189.34 45.7855C189.137 45.3641 189.035 44.8741 189.035 44.3153C189.035 43.7566 189.137 43.2642 189.34 42.8381C189.546 42.4096 189.833 42.0758 190.2 41.8366C190.569 41.5952 191 41.4744 191.492 41.4744C191.776 41.4744 192.057 41.5218 192.334 41.6165C192.611 41.7112 192.863 41.8651 193.09 42.0781C193.317 42.2888 193.499 42.5682 193.634 42.9162C193.768 43.2642 193.836 43.6927 193.836 44.2017V44.5568H189.631V43.8324H192.984C192.984 43.5246 192.922 43.25 192.799 43.0085C192.678 42.767 192.505 42.5765 192.281 42.4368C192.058 42.2971 191.795 42.2273 191.492 42.2273C191.158 42.2273 190.87 42.3101 190.626 42.4759C190.384 42.6392 190.198 42.8523 190.068 43.1151C189.938 43.3778 189.873 43.6596 189.873 43.9602V44.4432C189.873 44.8551 189.944 45.2043 190.086 45.4908C190.23 45.7749 190.43 45.9915 190.686 46.1406C190.942 46.2874 191.239 46.3608 191.577 46.3608C191.798 46.3608 191.996 46.33 192.174 46.2685C192.354 46.2045 192.509 46.1098 192.639 45.9844C192.769 45.8565 192.87 45.6979 192.941 45.5085L193.751 45.7358C193.665 46.0104 193.522 46.2519 193.321 46.4602C193.12 46.6662 192.871 46.8272 192.575 46.9432C192.279 47.0568 191.947 47.1136 191.577 47.1136ZM195.111 47V41.5455H195.92V42.3693H195.977C196.077 42.0994 196.257 41.8804 196.517 41.7124C196.777 41.5443 197.071 41.4602 197.398 41.4602C197.459 41.4602 197.536 41.4614 197.629 41.4638C197.721 41.4661 197.791 41.4697 197.838 41.4744V42.3267C197.81 42.3196 197.745 42.3089 197.643 42.2947C197.543 42.2782 197.438 42.2699 197.327 42.2699C197.062 42.2699 196.825 42.3255 196.616 42.4368C196.411 42.5457 196.247 42.6972 196.126 42.8913C196.008 43.0831 195.949 43.3021 195.949 43.5483V47H195.111Z" fill="black"/>
<path d="M172.881 119V111.727H173.761V118.219H177.142V119H172.881ZM180.679 119.114C180.153 119.114 179.7 118.998 179.319 118.766C178.94 118.531 178.648 118.205 178.442 117.786C178.238 117.364 178.136 116.874 178.136 116.315C178.136 115.757 178.238 115.264 178.442 114.838C178.648 114.41 178.934 114.076 179.301 113.837C179.67 113.595 180.101 113.474 180.594 113.474C180.878 113.474 181.158 113.522 181.435 113.616C181.712 113.711 181.964 113.865 182.192 114.078C182.419 114.289 182.6 114.568 182.735 114.916C182.87 115.264 182.938 115.693 182.938 116.202V116.557H178.733V115.832H182.085C182.085 115.525 182.024 115.25 181.901 115.009C181.78 114.767 181.607 114.576 181.382 114.437C181.16 114.297 180.897 114.227 180.594 114.227C180.26 114.227 179.971 114.31 179.727 114.476C179.486 114.639 179.3 114.852 179.17 115.115C179.04 115.378 178.974 115.66 178.974 115.96V116.443C178.974 116.855 179.045 117.204 179.188 117.491C179.332 117.775 179.532 117.991 179.788 118.141C180.043 118.287 180.34 118.361 180.679 118.361C180.899 118.361 181.098 118.33 181.276 118.268C181.455 118.205 181.611 118.11 181.741 117.984C181.871 117.857 181.972 117.698 182.043 117.509L182.852 117.736C182.767 118.01 182.624 118.252 182.423 118.46C182.221 118.666 181.973 118.827 181.677 118.943C181.381 119.057 181.048 119.114 180.679 119.114ZM188.076 114.767L187.323 114.98C187.276 114.855 187.206 114.733 187.114 114.614C187.024 114.494 186.901 114.394 186.744 114.316C186.588 114.238 186.388 114.199 186.144 114.199C185.81 114.199 185.532 114.276 185.31 114.43C185.089 114.581 184.979 114.774 184.979 115.009C184.979 115.217 185.055 115.381 185.207 115.502C185.358 115.623 185.595 115.723 185.917 115.804L186.727 116.003C187.214 116.121 187.578 116.302 187.817 116.546C188.056 116.788 188.175 117.099 188.175 117.48C188.175 117.793 188.085 118.072 187.906 118.318C187.728 118.564 187.479 118.759 187.16 118.901C186.84 119.043 186.469 119.114 186.045 119.114C185.488 119.114 185.028 118.993 184.663 118.751C184.299 118.51 184.068 118.157 183.971 117.693L184.766 117.494C184.842 117.788 184.985 118.008 185.196 118.155C185.409 118.302 185.687 118.375 186.031 118.375C186.421 118.375 186.731 118.292 186.961 118.126C187.193 117.958 187.309 117.757 187.309 117.523C187.309 117.333 187.243 117.175 187.11 117.047C186.978 116.917 186.774 116.82 186.499 116.756L185.59 116.543C185.091 116.424 184.724 116.241 184.489 115.992C184.257 115.741 184.141 115.428 184.141 115.051C184.141 114.743 184.228 114.471 184.401 114.234C184.576 113.998 184.814 113.812 185.114 113.677C185.417 113.542 185.761 113.474 186.144 113.474C186.684 113.474 187.108 113.593 187.415 113.83C187.726 114.066 187.946 114.379 188.076 114.767ZM191.724 119.114C191.198 119.114 190.745 118.998 190.364 118.766C189.985 118.531 189.693 118.205 189.487 117.786C189.283 117.364 189.181 116.874 189.181 116.315C189.181 115.757 189.283 115.264 189.487 114.838C189.693 114.41 189.979 114.076 190.346 113.837C190.715 113.595 191.146 113.474 191.639 113.474C191.923 113.474 192.203 113.522 192.48 113.616C192.757 113.711 193.009 113.865 193.237 114.078C193.464 114.289 193.645 114.568 193.78 114.916C193.915 115.264 193.982 115.693 193.982 116.202V116.557H189.778V115.832H193.13C193.13 115.525 193.069 115.25 192.945 115.009C192.825 114.767 192.652 114.576 192.427 114.437C192.204 114.297 191.942 114.227 191.639 114.227C191.305 114.227 191.016 114.31 190.772 114.476C190.531 114.639 190.345 114.852 190.215 115.115C190.084 115.378 190.019 115.66 190.019 115.96V116.443C190.019 116.855 190.09 117.204 190.232 117.491C190.377 117.775 190.577 117.991 190.833 118.141C191.088 118.287 191.385 118.361 191.724 118.361C191.944 118.361 192.143 118.33 192.32 118.268C192.5 118.205 192.655 118.11 192.786 117.984C192.916 117.857 193.017 117.698 193.088 117.509L193.897 117.736C193.812 118.01 193.669 118.252 193.468 118.46C193.266 118.666 193.018 118.827 192.722 118.943C192.426 119.057 192.093 119.114 191.724 119.114ZM195.257 119V113.545H196.067V114.369H196.124C196.223 114.099 196.403 113.88 196.664 113.712C196.924 113.544 197.218 113.46 197.544 113.46C197.606 113.46 197.683 113.461 197.775 113.464C197.867 113.466 197.937 113.47 197.985 113.474V114.327C197.956 114.32 197.891 114.309 197.789 114.295C197.69 114.278 197.584 114.27 197.473 114.27C197.208 114.27 196.971 114.326 196.763 114.437C196.557 114.546 196.394 114.697 196.273 114.891C196.155 115.083 196.095 115.302 196.095 115.548V119H195.257Z" fill="black"/>
<path d="M75.5362 6.72727V14H74.6555V7.65057H74.6129L72.8374 8.82955V7.93466L74.6555 6.72727H75.5362ZM81.3352 12.6364V12.2528C81.3352 11.9877 81.3897 11.745 81.4986 11.5249C81.6098 11.3023 81.7708 11.1248 81.9815 10.9922C82.1946 10.8572 82.4527 10.7898 82.7557 10.7898C83.0634 10.7898 83.3215 10.8572 83.5298 10.9922C83.7382 11.1248 83.8956 11.3023 84.0021 11.5249C84.1087 11.745 84.1619 11.9877 84.1619 12.2528V12.6364C84.1619 12.9015 84.1075 13.1454 83.9986 13.3679C83.892 13.5881 83.7334 13.7656 83.5227 13.9006C83.3144 14.0331 83.0587 14.0994 82.7557 14.0994C82.4479 14.0994 82.1887 14.0331 81.978 13.9006C81.7673 13.7656 81.6075 13.5881 81.4986 13.3679C81.3897 13.1454 81.3352 12.9015 81.3352 12.6364ZM82.0597 12.2528V12.6364C82.0597 12.8565 82.1117 13.0542 82.2159 13.2294C82.3201 13.4022 82.5 13.4886 82.7557 13.4886C83.0043 13.4886 83.1795 13.4022 83.2812 13.2294C83.3854 13.0542 83.4375 12.8565 83.4375 12.6364V12.2528C83.4375 12.0327 83.3878 11.8362 83.2884 11.6634C83.1889 11.4882 83.0114 11.4006 82.7557 11.4006C82.5071 11.4006 82.3284 11.4882 82.2195 11.6634C82.1129 11.8362 82.0597 12.0327 82.0597 12.2528ZM77.7131 8.47443V8.09091C77.7131 7.82576 77.7675 7.5831 77.8764 7.36293C77.9877 7.14039 78.1487 6.96283 78.3594 6.83026C78.5724 6.69531 78.8305 6.62784 79.1335 6.62784C79.4413 6.62784 79.6993 6.69531 79.9077 6.83026C80.116 6.96283 80.2734 7.14039 80.38 7.36293C80.4865 7.5831 80.5398 7.82576 80.5398 8.09091V8.47443C80.5398 8.73958 80.4853 8.98343 80.3764 9.20597C80.2699 9.42614 80.1113 9.60369 79.9006 9.73864C79.6922 9.87121 79.4366 9.9375 79.1335 9.9375C78.8258 9.9375 78.5665 9.87121 78.3558 9.73864C78.1451 9.60369 77.9853 9.42614 77.8764 9.20597C77.7675 8.98343 77.7131 8.73958 77.7131 8.47443ZM78.4375 8.09091V8.47443C78.4375 8.6946 78.4896 8.89228 78.5938 9.06747C78.6979 9.24029 78.8778 9.3267 79.1335 9.3267C79.3821 9.3267 79.5573 9.24029 79.6591 9.06747C79.7633 8.89228 79.8153 8.6946 79.8153 8.47443V8.09091C79.8153 7.87074 79.7656 7.67424 79.6662 7.50142C79.5668 7.32623 79.3892 7.23864 79.1335 7.23864C78.8849 7.23864 78.7062 7.32623 78.5973 7.50142C78.4908 7.67424 78.4375 7.87074 78.4375 8.09091ZM77.983 14L82.983 6.72727H83.7926L78.7926 14H77.983Z" fill="black"/>
<path d="M57.7029 39.6278C58.0012 39.6302 58.2995 39.687 58.5978 39.7983C58.8961 39.9096 59.1684 40.0942 59.4146 40.3523C59.6608 40.608 59.8585 40.9571 60.0076 41.3999C60.1568 41.8426 60.2314 42.3977 60.2314 43.0653C60.2314 43.7116 60.1698 44.2857 60.0467 44.7876C59.926 45.2872 59.7508 45.7086 59.5211 46.0518C59.2939 46.3951 59.0169 46.6555 58.6902 46.8331C58.3658 47.0107 57.9989 47.0994 57.5893 47.0994C57.1821 47.0994 56.8187 47.0189 56.4991 46.858C56.1819 46.6946 55.9215 46.4685 55.7179 46.1797C55.5166 45.8885 55.3876 45.5511 55.3308 45.1676H56.1973C56.2754 45.5014 56.4305 45.7772 56.6625 45.995C56.8968 46.2105 57.2058 46.3182 57.5893 46.3182C58.1504 46.3182 58.5931 46.0732 58.9174 45.5831C59.2441 45.093 59.4075 44.4006 59.4075 43.5057H59.3507C59.2181 43.7045 59.0607 43.8762 58.8784 44.0206C58.6961 44.165 58.4937 44.2763 58.2711 44.3544C58.0486 44.4325 57.8118 44.4716 57.5609 44.4716C57.1442 44.4716 56.7619 44.3686 56.4139 44.1626C56.0682 43.9543 55.7913 43.669 55.5829 43.3068C55.377 42.9422 55.274 42.5256 55.274 42.0568C55.274 41.6117 55.3734 41.2045 55.5723 40.8352C55.7735 40.4635 56.0552 40.1676 56.4174 39.9474C56.782 39.7273 57.2105 39.6207 57.7029 39.6278ZM57.7029 40.4091C57.4047 40.4091 57.1359 40.4837 56.8968 40.6328C56.6601 40.7796 56.4719 40.9785 56.3322 41.2294C56.1949 41.478 56.1262 41.7538 56.1262 42.0568C56.1262 42.3598 56.1925 42.6357 56.3251 42.8842C56.46 43.1304 56.6435 43.3269 56.8755 43.4737C57.1099 43.6181 57.3762 43.6903 57.6745 43.6903C57.8994 43.6903 58.109 43.6465 58.3031 43.5589C58.4972 43.469 58.6665 43.3471 58.8109 43.1932C58.9577 43.0369 59.0725 42.8606 59.1554 42.6641C59.2382 42.4652 59.2797 42.258 59.2797 42.0426C59.2797 41.7585 59.211 41.4922 59.0737 41.2436C58.9387 40.995 58.7517 40.7938 58.5126 40.6399C58.2759 40.486 58.006 40.4091 57.7029 40.4091ZM65.3352 45.6364V45.2528C65.3352 44.9877 65.3897 44.745 65.4986 44.5249C65.6098 44.3023 65.7708 44.1248 65.9815 43.9922C66.1946 43.8572 66.4527 43.7898 66.7557 43.7898C67.0634 43.7898 67.3215 43.8572 67.5298 43.9922C67.7382 44.1248 67.8956 44.3023 68.0021 44.5249C68.1087 44.745 68.1619 44.9877 68.1619 45.2528V45.6364C68.1619 45.9015 68.1075 46.1454 67.9986 46.3679C67.892 46.5881 67.7334 46.7656 67.5227 46.9006C67.3144 47.0331 67.0587 47.0994 66.7557 47.0994C66.4479 47.0994 66.1887 47.0331 65.978 46.9006C65.7673 46.7656 65.6075 46.5881 65.4986 46.3679C65.3897 46.1454 65.3352 45.9015 65.3352 45.6364ZM66.0597 45.2528V45.6364C66.0597 45.8565 66.1117 46.0542 66.2159 46.2294C66.3201 46.4022 66.5 46.4886 66.7557 46.4886C67.0043 46.4886 67.1795 46.4022 67.2812 46.2294C67.3854 46.0542 67.4375 45.8565 67.4375 45.6364V45.2528C67.4375 45.0327 67.3878 44.8362 67.2884 44.6634C67.1889 44.4882 67.0114 44.4006 66.7557 44.4006C66.5071 44.4006 66.3284 44.4882 66.2195 44.6634C66.1129 44.8362 66.0597 45.0327 66.0597 45.2528ZM61.7131 41.4744V41.0909C61.7131 40.8258 61.7675 40.5831 61.8764 40.3629C61.9877 40.1404 62.1487 39.9628 62.3594 39.8303C62.5724 39.6953 62.8305 39.6278 63.1335 39.6278C63.4413 39.6278 63.6993 39.6953 63.9077 39.8303C64.116 39.9628 64.2734 40.1404 64.38 40.3629C64.4865 40.5831 64.5398 40.8258 64.5398 41.0909V41.4744C64.5398 41.7396 64.4853 41.9834 64.3764 42.206C64.2699 42.4261 64.1113 42.6037 63.9006 42.7386C63.6922 42.8712 63.4366 42.9375 63.1335 42.9375C62.8258 42.9375 62.5665 42.8712 62.3558 42.7386C62.1451 42.6037 61.9853 42.4261 61.8764 42.206C61.7675 41.9834 61.7131 41.7396 61.7131 41.4744ZM62.4375 41.0909V41.4744C62.4375 41.6946 62.4896 41.8923 62.5938 42.0675C62.6979 42.2403 62.8778 42.3267 63.1335 42.3267C63.3821 42.3267 63.5573 42.2403 63.6591 42.0675C63.7633 41.8923 63.8153 41.6946 63.8153 41.4744V41.0909C63.8153 40.8707 63.7656 40.6742 63.6662 40.5014C63.5668 40.3262 63.3892 40.2386 63.1335 40.2386C62.8849 40.2386 62.7062 40.3262 62.5973 40.5014C62.4908 40.6742 62.4375 40.8707 62.4375 41.0909ZM61.983 47L66.983 39.7273H67.7926L62.7926 47H61.983Z" fill="black"/>
<path d="M11.4529 111.628C11.7512 111.63 12.0495 111.687 12.3478 111.798C12.6461 111.91 12.9184 112.094 13.1646 112.352C13.4108 112.608 13.6085 112.957 13.7576 113.4C13.9068 113.843 13.9814 114.398 13.9814 115.065C13.9814 115.712 13.9198 116.286 13.7967 116.788C13.676 117.287 13.5008 117.709 13.2711 118.052C13.0439 118.395 12.7669 118.656 12.4402 118.833C12.1158 119.011 11.7489 119.099 11.3393 119.099C10.9321 119.099 10.5687 119.019 10.2491 118.858C9.93188 118.695 9.67146 118.469 9.46786 118.18C9.26663 117.888 9.13761 117.551 9.08079 117.168H9.94727C10.0254 117.501 10.1805 117.777 10.4125 117.995C10.6468 118.21 10.9558 118.318 11.3393 118.318C11.9004 118.318 12.3431 118.073 12.6674 117.583C12.9941 117.093 13.1575 116.401 13.1575 115.506H13.1007C12.9681 115.705 12.8107 115.876 12.6284 116.021C12.4461 116.165 12.2437 116.276 12.0211 116.354C11.7986 116.433 11.5618 116.472 11.3109 116.472C10.8942 116.472 10.5119 116.369 10.1639 116.163C9.81824 115.954 9.54125 115.669 9.33292 115.307C9.12695 114.942 9.02397 114.526 9.02397 114.057C9.02397 113.612 9.1234 113.205 9.32227 112.835C9.5235 112.464 9.80522 112.168 10.1674 111.947C10.532 111.727 10.9605 111.621 11.4529 111.628ZM11.4529 112.409C11.1547 112.409 10.8859 112.484 10.6468 112.633C10.4101 112.78 10.2219 112.978 10.0822 113.229C9.9449 113.478 9.87624 113.754 9.87624 114.057C9.87624 114.36 9.94253 114.636 10.0751 114.884C10.21 115.13 10.3935 115.327 10.6255 115.474C10.8599 115.618 11.1262 115.69 11.4245 115.69C11.6494 115.69 11.859 115.647 12.0531 115.559C12.2472 115.469 12.4165 115.347 12.5609 115.193C12.7077 115.037 12.8225 114.861 12.9054 114.664C12.9882 114.465 13.0297 114.258 13.0297 114.043C13.0297 113.759 12.961 113.492 12.8237 113.244C12.6887 112.995 12.5017 112.794 12.2626 112.64C12.0259 112.486 11.756 112.409 11.4529 112.409ZM17.75 119.099C17.215 119.099 16.7592 118.954 16.3828 118.663C16.0064 118.369 15.7188 117.944 15.5199 117.388C15.321 116.829 15.2216 116.154 15.2216 115.364C15.2216 114.578 15.321 113.906 15.5199 113.35C15.7211 112.791 16.0099 112.365 16.3864 112.072C16.7652 111.776 17.2197 111.628 17.75 111.628C18.2803 111.628 18.7337 111.776 19.1101 112.072C19.4889 112.365 19.7777 112.791 19.9766 113.35C20.1778 113.906 20.2784 114.578 20.2784 115.364C20.2784 116.154 20.179 116.829 19.9801 117.388C19.7812 117.944 19.4936 118.369 19.1172 118.663C18.7408 118.954 18.285 119.099 17.75 119.099ZM17.75 118.318C18.2803 118.318 18.6922 118.062 18.9858 117.551C19.2794 117.04 19.4261 116.311 19.4261 115.364C19.4261 114.734 19.3587 114.198 19.2237 113.755C19.0911 113.312 18.8994 112.975 18.6484 112.743C18.3999 112.511 18.1004 112.395 17.75 112.395C17.2244 112.395 16.8137 112.654 16.5178 113.173C16.2218 113.689 16.0739 114.419 16.0739 115.364C16.0739 115.993 16.1402 116.528 16.2727 116.969C16.4053 117.409 16.5959 117.744 16.8445 117.974C17.0954 118.203 17.3973 118.318 17.75 118.318ZM25.3352 117.636V117.253C25.3352 116.988 25.3897 116.745 25.4986 116.525C25.6098 116.302 25.7708 116.125 25.9815 115.992C26.1946 115.857 26.4527 115.79 26.7557 115.79C27.0634 115.79 27.3215 115.857 27.5298 115.992C27.7382 116.125 27.8956 116.302 28.0021 116.525C28.1087 116.745 28.1619 116.988 28.1619 117.253V117.636C28.1619 117.902 28.1075 118.145 27.9986 118.368C27.892 118.588 27.7334 118.766 27.5227 118.901C27.3144 119.033 27.0587 119.099 26.7557 119.099C26.4479 119.099 26.1887 119.033 25.978 118.901C25.7673 118.766 25.6075 118.588 25.4986 118.368C25.3897 118.145 25.3352 117.902 25.3352 117.636ZM26.0597 117.253V117.636C26.0597 117.857 26.1117 118.054 26.2159 118.229C26.3201 118.402 26.5 118.489 26.7557 118.489C27.0043 118.489 27.1795 118.402 27.2812 118.229C27.3854 118.054 27.4375 117.857 27.4375 117.636V117.253C27.4375 117.033 27.3878 116.836 27.2884 116.663C27.1889 116.488 27.0114 116.401 26.7557 116.401C26.5071 116.401 26.3284 116.488 26.2195 116.663C26.1129 116.836 26.0597 117.033 26.0597 117.253ZM21.7131 113.474V113.091C21.7131 112.826 21.7675 112.583 21.8764 112.363C21.9877 112.14 22.1487 111.963 22.3594 111.83C22.5724 111.695 22.8305 111.628 23.1335 111.628C23.4413 111.628 23.6993 111.695 23.9077 111.83C24.116 111.963 24.2734 112.14 24.38 112.363C24.4865 112.583 24.5398 112.826 24.5398 113.091V113.474C24.5398 113.74 24.4853 113.983 24.3764 114.206C24.2699 114.426 24.1113 114.604 23.9006 114.739C23.6922 114.871 23.4366 114.938 23.1335 114.938C22.8258 114.938 22.5665 114.871 22.3558 114.739C22.1451 114.604 21.9853 114.426 21.8764 114.206C21.7675 113.983 21.7131 113.74 21.7131 113.474ZM22.4375 113.091V113.474C22.4375 113.695 22.4896 113.892 22.5938 114.067C22.6979 114.24 22.8778 114.327 23.1335 114.327C23.3821 114.327 23.5573 114.24 23.6591 114.067C23.7633 113.892 23.8153 113.695 23.8153 113.474V113.091C23.8153 112.871 23.7656 112.674 23.6662 112.501C23.5668 112.326 23.3892 112.239 23.1335 112.239C22.8849 112.239 22.7062 112.326 22.5973 112.501C22.4908 112.674 22.4375 112.871 22.4375 113.091ZM21.983 119L26.983 111.727H27.7926L22.7926 119H21.983Z" fill="black"/>
</svg>
